<svg width="28" height="25" viewBox="0 0 28 25" fill="none" xmlns="http://www.w3.org/2000/svg">
<path d="M5 21.5V23C5 23.425 4.8565 23.781 4.5695 24.068C4.2815 24.356 3.925 24.5 3.5 24.5H2C1.575 24.5 1.219 24.356 0.932 24.068C0.644 23.781 0.5 23.425 0.5 23V11L3.65 2C3.8 1.55 4.069 1.1875 4.457 0.9125C4.844 0.6375 5.275 0.5 5.75 0.5H22.25C22.725 0.5 23.1565 0.6375 23.5445 0.9125C23.9315 1.1875 24.2 1.55 24.35 2L27.5 11V23C27.5 23.425 27.356 23.781 27.068 24.068C26.781 24.356 26.425 24.5 26 24.5H24.5C24.075 24.5 23.719 24.356 23.432 24.068C23.144 23.781 23 23.425 23 23V21.5H5ZM4.7 8H23.3L21.725 3.5H6.275L4.7 8ZM7.25 17C7.875 17 8.406 16.781 8.843 16.343C9.281 15.906 9.5 15.375 9.5 14.75C9.5 14.125 9.281 13.594 8.843 13.157C8.406 12.719 7.875 12.5 7.25 12.5C6.625 12.5 6.094 12.719 5.657 13.157C5.219 13.594 5 14.125 5 14.75C5 15.375 5.219 15.906 5.657 16.343C6.094 16.781 6.625 17 7.25 17ZM20.75 17C21.375 17 21.906 16.781 22.343 16.343C22.781 15.906 23 15.375 23 14.75C23 14.125 22.781 13.594 22.343 13.157C21.906 12.719 21.375 12.5 20.75 12.5C20.125 12.5 19.594 12.719 19.157 13.157C18.719 13.594 18.5 14.125 18.5 14.75C18.5 15.375 18.719 15.906 19.157 16.343C19.594 16.781 20.125 17 20.75 17Z" fill="#3DD495"/>
</svg>
