<svg width="29" height="29" viewBox="0 0 29 29" fill="none" xmlns="http://www.w3.org/2000/svg">
<path d="M22.8125 28.1375L12.65 17.9C12.15 18.1 11.644 18.25 11.132 18.35C10.619 18.45 10.075 18.5 9.5 18.5C7 18.5 4.875 17.625 3.125 15.875C1.375 14.125 0.5 12 0.5 9.5C0.5 8.6 0.625 7.7435 0.875 6.9305C1.125 6.1185 1.475 5.35 1.925 4.625L7.4 10.1L10.1 7.4L4.625 1.925C5.35 1.475 6.1185 1.125 6.9305 0.875C7.7435 0.625 8.6 0.5 9.5 0.5C12 0.5 14.125 1.375 15.875 3.125C17.625 4.875 18.5 7 18.5 9.5C18.5 10.075 18.45 10.6185 18.35 11.1305C18.25 11.6435 18.1 12.15 17.9 12.65L28.1375 22.8125L22.8125 28.1375Z" fill="#3DD495"/>
</svg>
