<svg width="274" height="41" viewBox="0 0 274 41" fill="none" xmlns="http://www.w3.org/2000/svg">
<path d="M64.5676 28.4152C66.2458 25.3593 67.8962 22.3604 69.7416 18.9982C69.9157 20.4656 69.9993 21.5128 70.1734 22.5314C71.2527 28.7286 76.5382 33.2305 82.6454 33.1949C88.669 33.1593 93.8082 28.636 94.9712 22.5243C96.0575 16.8399 92.6522 10.892 88.0283 8.67666C82.9309 6.23339 76.9908 7.309 73.3279 11.761C71.8447 13.5632 70.7444 15.7144 69.5675 17.7659C67.4297 21.4914 65.4102 25.281 63.2654 29.0064C61.2946 32.4327 58.7459 35.3319 55.3755 37.4047C51.3783 39.8694 47.0469 40.3609 42.5135 39.7981C33.8924 38.7225 28.0499 32.1905 26.5457 23.9774C25.0206 15.6218 28.5443 7.45147 35.3478 3.05642C42.6876 -1.68766 52.7641 -0.832869 59.2194 5.09367C59.7835 5.61367 60.2222 6.28325 60.7724 6.94572C59.3866 9.06844 58.0704 11.0914 56.6359 13.2925C56.1136 12.6657 55.6958 12.1599 55.271 11.6542C51.622 7.31613 45.4383 6.1123 40.1946 8.80488C35.0832 11.4262 32.5693 17.5807 33.6696 22.4886C35.0066 28.4722 39.1222 32.4826 45.0344 32.9954C48.2725 33.2804 51.239 32.2902 53.5997 29.9609C54.9089 28.6716 56.1276 27.2114 57.0677 25.63C59.9576 20.7719 62.7083 15.8355 65.4729 10.9062C69.0661 4.49532 74.4909 1.04767 81.6356 0.385206C93.5854 -0.718897 101.559 8.79064 102.234 18.6777C102.833 27.4464 98.077 35.2749 90.9322 38.6299C81.4337 43.0891 69.2054 38.9932 64.5606 28.4081L64.5676 28.4152Z" fill="#3DD595"/>
<path d="M113.348 15.0521V16.9896C113.348 23.7638 113.348 30.538 113.348 37.3122C113.348 37.7681 113.348 38.224 113.334 38.6799C113.313 39.4207 112.965 39.8623 112.206 39.8694C110.59 39.8766 108.975 39.8837 107.366 39.8694C106.642 39.8694 106.224 39.4919 106.224 38.7084C106.224 38.3095 106.224 37.9106 106.224 37.5117C106.224 25.7868 106.224 14.0548 106.224 2.32993C106.224 1.61761 106.322 0.898162 106.37 0.264193C108 -0.277173 109.051 0.221454 110.068 1.34693C114.483 6.22635 118.968 11.0417 123.411 15.8926C125.5 18.172 127.575 20.4657 129.629 22.7737C130.075 23.2723 130.43 23.8493 130.82 24.3978C130.98 24.3052 131.14 24.2197 131.3 24.1271C131.328 23.5358 131.37 22.9517 131.37 22.3605C131.37 15.9282 131.37 9.49592 131.37 3.06363C131.37 2.60774 131.37 2.15185 131.384 1.69597C131.412 1.01926 131.781 0.627479 132.436 0.620356C134.163 0.598986 135.883 0.591863 137.61 0.627479C138.264 0.641725 138.591 1.09049 138.598 1.76008C138.598 2.10199 138.598 2.44391 138.598 2.78582C138.598 14.6247 138.598 26.4706 138.598 38.3095C138.598 38.3664 138.598 38.4234 138.598 38.4804C138.515 39.1215 138.898 40.0404 138.062 40.2683C137.192 40.5105 136.238 40.6031 135.465 39.6985C134.009 37.9889 132.456 36.3577 130.959 34.6766C127.742 31.0651 124.532 27.4465 121.321 23.8421C118.891 21.1139 116.447 18.3929 114.01 15.6718C113.877 15.5293 113.717 15.4082 113.327 15.0521H113.348Z" fill="#3DD595"/>
<path d="M183.494 24.54V26.4063C183.494 30.2172 183.494 34.0353 183.494 37.8462C183.494 39.7695 183.39 39.8621 181.502 39.8763C180.333 39.8835 179.163 39.8977 178 39.8763C176.475 39.8479 176.203 39.5416 176.154 37.9388C176.154 37.7109 176.154 37.4829 176.154 37.255C176.154 25.986 176.154 14.717 176.154 3.44807C176.154 3.27711 176.154 3.10615 176.154 2.93519C176.182 0.769727 176.349 0.598769 178.445 0.591646C183.341 0.591646 188.236 0.641508 193.132 0.577399C199.037 0.499043 204.03 5.11491 204.921 10.785C205.667 15.4792 203.229 20.3444 199.476 22.7164C198.724 23.1937 197.951 23.6211 197.094 24.1269C198.661 27.1257 200.2 30.0748 201.746 33.0167C202.533 34.5197 203.355 36.0013 204.141 37.5043C204.984 39.1213 204.587 39.8479 202.832 39.8763C201.384 39.8977 199.935 39.8122 198.494 39.9048C197.394 39.9689 196.788 39.5914 196.3 38.5514C194.852 35.4172 193.299 32.3328 191.774 29.2342C191.147 27.9663 190.513 26.6983 189.831 25.466C189.629 25.1099 189.267 24.6041 188.954 24.5899C187.199 24.5044 185.43 24.5471 183.501 24.5471L183.494 24.54ZM183.557 18.3143C186.906 18.3143 190.075 18.4639 193.222 18.2644C195.597 18.1148 197.609 15.5861 197.749 13.0929C197.916 10.0371 195.611 7.55106 192.352 7.43708C189.685 7.34448 187.018 7.41571 184.351 7.43708C184.1 7.43708 183.849 7.5653 183.557 7.63654V18.3072V18.3143Z" fill="#3DD595"/>
<path d="M233.194 31.5279V26.8978C231.927 26.8978 230.722 26.912 229.524 26.8978C227.964 26.8693 227.832 26.7268 227.811 25.1098C227.797 24.0271 227.79 22.9444 227.811 21.8616C227.839 20.7005 228.166 20.323 229.273 20.2375C230.046 20.1734 230.833 20.2162 231.613 20.2162C233.897 20.2162 236.181 20.1948 238.459 20.2162C240.158 20.2375 240.492 20.5866 240.492 22.3246C240.499 26.5986 240.471 30.8654 240.513 35.1394C240.52 36.1224 240.192 36.7777 239.35 37.1909C233.076 40.2467 226.592 41.5574 219.803 39.2708C211.878 36.5996 206.718 28.7071 206.711 20.7646C206.711 15.8923 207.902 11.5329 210.847 7.75048C214.747 2.74996 219.817 0.12148 226.14 0.0288778C231.021 -0.0423547 235.29 1.5675 239.113 4.57351C240.506 5.67049 240.52 6.14062 239.357 7.43705C238.493 8.39869 237.609 9.34608 236.732 10.2935C236.14 10.9346 235.513 11.02 234.823 10.4359C234.566 10.2151 234.287 10.0299 234.016 9.83759C227.358 5.03652 218.953 7.39431 215.638 14.9948C212.435 22.3531 216.634 30.9651 224.343 32.6747C227.351 33.3443 230.283 32.8243 233.194 31.5279Z" fill="#3DD595"/>
<path d="M152.5 7.42303V16.3627C153.071 16.3983 153.6 16.4553 154.137 16.4553C157.751 16.4624 161.372 16.4553 164.986 16.4553C166.88 16.4553 167.005 16.5764 167.019 18.4427C167.026 19.5824 167.047 20.7221 167.012 21.8547C166.985 22.909 166.664 23.2723 165.655 23.429C165.216 23.5002 164.77 23.4717 164.324 23.4717C161.045 23.4717 157.758 23.4717 154.478 23.4717C153.872 23.4717 153.273 23.4717 152.556 23.4717V32.9527C153.155 32.9812 153.747 33.0382 154.339 33.0382C158.677 33.0453 163.015 33.0382 167.361 33.0382C167.751 33.0382 168.141 33.0382 168.531 33.0525C169.248 33.081 169.687 33.43 169.693 34.2064C169.7 35.6881 169.693 37.1626 169.693 38.6442C169.693 39.3993 169.304 39.7982 168.579 39.8552C168.189 39.8837 167.799 39.8765 167.409 39.8765C160.787 39.8765 154.164 39.8765 147.549 39.8765C147.215 39.8765 146.88 39.8908 146.546 39.8694C145.481 39.7839 145.209 39.5133 145.105 38.4091C145.07 38.0744 145.091 37.7253 145.091 37.3834C145.091 25.9435 145.091 14.5035 145.091 3.0636C145.091 2.77867 145.077 2.49374 145.091 2.20881C145.181 0.905255 145.439 0.655941 146.72 0.584709C146.887 0.577586 147.054 0.584709 147.222 0.584709C154.067 0.584709 160.912 0.584709 167.751 0.584709C169.547 0.584709 169.666 0.720051 169.687 2.50086C169.693 3.52661 169.7 4.55236 169.687 5.57098C169.666 7.22358 169.505 7.40166 167.834 7.40878C163.384 7.42303 158.935 7.40878 154.478 7.40878C153.872 7.40878 153.266 7.40878 152.5 7.40878V7.42303Z" fill="#3DD595"/>
<path d="M7.21441 23.5647V32.9246C7.77847 32.9674 8.35646 33.0386 8.94141 33.0386C13.2798 33.0457 17.6252 33.0386 21.9636 33.0386C22.4092 33.0386 22.8549 33.0386 23.3006 33.06C23.9482 33.0956 24.3591 33.4375 24.366 34.1214C24.3869 35.66 24.38 37.1915 24.373 38.7301C24.373 39.4139 23.9761 39.7701 23.3493 39.8484C22.9663 39.8983 22.5694 39.8769 22.1794 39.8769C15.5012 39.8769 8.82303 39.8769 2.14482 39.8769C1.81057 39.8769 1.47631 39.8769 1.14205 39.8627C0.417823 39.8342 0 39.478 0 38.7016C0 38.3597 0 38.0178 0 37.6759C0 26.065 0 14.4541 0 2.84317C0 2.67222 0 2.50126 0 2.3303C0.0278549 0.734693 0.146238 0.592228 1.74093 0.592228C8.69768 0.577981 15.6544 0.577981 22.6112 0.592228C24.2059 0.592228 24.3591 0.770309 24.38 2.3303C24.3939 3.47002 24.4009 4.60974 24.38 5.74234C24.3591 7.15986 24.1293 7.40205 22.7017 7.40918C19.5889 7.43055 16.4692 7.40918 13.3564 7.4163C11.3578 7.4163 9.3662 7.4163 7.13084 7.4163C7.13084 9.01903 7.13084 10.4864 7.13084 11.9467C7.13084 13.407 7.13084 14.7746 7.13084 16.3275C7.70883 16.3773 8.18933 16.4486 8.66286 16.4486C12.277 16.4557 15.8982 16.4486 19.5123 16.4486C21.685 16.4486 21.7129 16.4771 21.7129 18.7779C21.7129 19.8606 21.6711 20.9433 21.7268 22.019C21.7686 22.8809 21.3856 23.294 20.5987 23.3724C20.1042 23.4222 19.6029 23.465 19.1015 23.465C15.7658 23.4721 12.4233 23.465 9.08765 23.4721C8.49573 23.4721 7.89685 23.522 7.22137 23.5505L7.21441 23.5647Z" fill="#3DD595"/>
<path d="M257.155 13.7133C257.601 13.1292 257.914 12.7516 258.193 12.3456C260.574 8.8481 262.97 5.35771 265.303 1.83171C265.895 0.941299 266.549 0.506781 267.629 0.570891C269.07 0.65637 270.526 0.549521 271.967 0.61363C272.468 0.635 273.13 0.805958 273.409 1.155C273.826 1.68924 273.457 2.30896 273.088 2.85033C270.324 6.90346 267.58 10.9708 264.822 15.0382C263.743 16.6267 262.684 18.2223 261.57 19.7894C261.055 20.516 260.86 21.2639 260.86 22.1615C260.888 27.2261 260.874 32.2907 260.874 37.3625C260.874 37.8184 260.895 38.2814 260.832 38.723C260.728 39.4068 260.366 39.8698 259.62 39.8698C257.949 39.8698 256.285 39.8841 254.613 39.8698C253.952 39.8698 253.597 39.4709 253.562 38.8014C253.541 38.3455 253.541 37.8896 253.541 37.4337C253.541 32.4261 253.52 27.4113 253.555 22.4036C253.555 21.5061 253.339 20.7653 252.852 20.0316C249.056 14.3544 245.282 8.6629 241.508 2.97142C241.292 2.65088 241.041 2.32321 240.937 1.9528C240.735 1.24048 241.076 0.65637 241.807 0.635C243.75 0.578014 245.707 0.542398 247.643 0.663493C248.123 0.691986 248.666 1.28322 248.994 1.74623C250.581 4.0043 252.107 6.31223 253.659 8.59879C254.767 10.23 255.881 11.847 257.155 13.7204V13.7133Z" fill="#3DD595"/>
</svg>
