<svg width="215" height="32" viewBox="0 0 215 32" fill="none" xmlns="http://www.w3.org/2000/svg">
<path d="M50.7399 22.3294C52.0587 19.928 53.3557 17.5714 54.8058 14.9293C54.9426 16.0824 55.0083 16.9053 55.1451 17.7057C55.9933 22.5757 60.1468 26.1135 64.9461 26.0855C69.6796 26.0575 73.7182 22.503 74.6321 17.7002C75.4858 13.2332 72.8098 8.55912 69.1762 6.81823C65.1704 4.89822 60.5025 5.74348 57.6241 9.24204C56.4585 10.6583 55.5938 12.3488 54.669 13.9609C52.989 16.8885 51.402 19.8665 49.7166 22.7941C48.1679 25.4865 46.165 27.7648 43.5164 29.3937C40.3753 31.3305 36.9715 31.7168 33.409 31.2746C26.6343 30.4293 22.043 25.2962 20.861 18.8421C19.6625 12.276 22.4315 5.85543 27.778 2.40165C33.5458 -1.32641 41.4643 -0.654689 46.5371 4.00259C46.9804 4.41122 47.3252 4.93741 47.7575 5.45799C46.6685 7.12611 45.6342 8.71585 44.5069 10.4455C44.0965 9.95294 43.7681 9.55551 43.4343 9.15807C40.5668 5.74907 35.7074 4.80306 31.5867 6.91899C27.57 8.97894 25.5945 13.8154 26.4592 17.6722C27.5099 22.3742 30.744 25.5257 35.39 25.9288C37.9346 26.1527 40.2659 25.3746 42.121 23.5441C43.1498 22.531 44.1074 21.3834 44.8462 20.1407C47.1172 16.3231 49.2788 12.4439 51.4513 8.57031C54.275 3.53239 58.538 0.823102 64.1526 0.302517C73.5431 -0.565126 79.8089 6.9078 80.3397 14.6774C80.8103 21.5682 77.0727 27.72 71.4581 30.3565C63.9939 33.8607 54.3845 30.642 50.7344 22.3238L50.7399 22.3294Z" fill="#3DD595"/>
<path d="M89.0723 11.8283V13.3509C89.0723 18.6743 89.0723 23.9977 89.0723 29.3211C89.0723 29.6793 89.0723 30.0376 89.0614 30.3958C89.045 30.978 88.7713 31.3251 88.1749 31.3307C86.9053 31.3363 85.6357 31.3418 84.3716 31.3307C83.8025 31.3307 83.4741 31.034 83.4741 30.4182C83.4741 30.1048 83.4741 29.7913 83.4741 29.4778C83.4741 20.264 83.4741 11.0446 83.4741 1.8308C83.4741 1.27103 83.5507 0.705662 83.589 0.207467C84.8696 -0.217957 85.6959 0.173881 86.4948 1.05832C89.9643 4.89274 93.4885 8.67678 96.9798 12.4888C98.6215 14.2801 100.252 16.0825 101.867 17.8962C102.217 18.288 102.496 18.7414 102.802 19.1725C102.928 19.0997 103.054 19.0325 103.18 18.9597C103.202 18.4951 103.235 18.0361 103.235 17.5715C103.235 12.5168 103.235 7.46208 103.235 2.40736C103.235 2.04911 103.235 1.69086 103.246 1.3326C103.268 0.800823 103.558 0.49295 104.072 0.487352C105.429 0.470559 106.781 0.464961 108.138 0.49295C108.652 0.504145 108.91 0.8568 108.915 1.38298C108.915 1.65167 108.915 1.92036 108.915 2.18905C108.915 11.4924 108.915 20.8014 108.915 30.1048C108.915 30.1495 108.915 30.1943 108.915 30.2391C108.849 30.7429 109.15 31.465 108.494 31.6441C107.81 31.8344 107.06 31.9072 106.452 31.1963C105.309 29.8529 104.088 28.571 102.912 27.2499C100.384 24.4119 97.8609 21.5683 95.3381 18.7358C93.4283 16.5919 91.5075 14.4536 89.5922 12.3153C89.4882 12.2033 89.3624 12.1082 89.0559 11.8283H89.0723Z" fill="#3DD595"/>
<path d="M144.197 19.2848V20.7514C144.197 23.7462 144.197 26.7465 144.197 29.7413C144.197 31.2527 144.114 31.3254 142.631 31.3366C141.712 31.3422 140.793 31.3534 139.879 31.3366C138.68 31.3142 138.467 31.0735 138.429 29.8141C138.429 29.6349 138.429 29.4558 138.429 29.2767C138.429 20.4211 138.429 11.5656 138.429 2.71001C138.429 2.57567 138.429 2.44132 138.429 2.30698C138.451 0.605279 138.582 0.470935 140.229 0.465337C144.076 0.465337 147.923 0.504521 151.77 0.454142C156.411 0.392567 160.334 4.01987 161.035 8.47564C161.62 12.1645 159.705 15.9877 156.756 17.8518C156.165 18.2268 155.557 18.5627 154.884 18.9601C156.115 21.3167 157.325 23.6342 158.54 25.946C159.158 27.1272 159.804 28.2915 160.422 29.4726C161.084 30.7433 160.772 31.3142 159.393 31.3366C158.255 31.3534 157.117 31.2862 155.984 31.359C155.119 31.4094 154.643 31.1127 154.26 30.2955C153.122 27.8325 151.902 25.4087 150.703 22.9737C150.211 21.9773 149.713 20.9809 149.176 20.0125C149.018 19.7326 148.733 19.3352 148.487 19.324C147.108 19.2568 145.718 19.2904 144.202 19.2904L144.197 19.2848ZM144.246 14.3924C146.878 14.3924 149.368 14.51 151.841 14.3532C153.707 14.2357 155.289 12.2485 155.398 10.2893C155.53 7.88788 153.718 5.93428 151.157 5.84472C149.061 5.77195 146.966 5.82793 144.87 5.84472C144.673 5.84472 144.476 5.94548 144.246 6.00146V14.3868V14.3924Z" fill="#3DD595"/>
<path d="M183.252 24.7748V21.1363C182.256 21.1363 181.309 21.1475 180.368 21.1363C179.142 21.1139 179.038 21.002 179.022 19.7313C179.011 18.8804 179.005 18.0296 179.022 17.1787C179.043 16.2663 179.301 15.9696 180.171 15.9025C180.778 15.8521 181.397 15.8857 182.009 15.8857C183.804 15.8857 185.599 15.8689 187.389 15.8857C188.724 15.9025 188.987 16.1767 188.987 17.5426C188.992 20.9012 188.97 24.2542 189.003 27.6128C189.009 28.3853 188.751 28.9003 188.089 29.225C183.159 31.6264 178.064 32.6564 172.728 30.8595C166.501 28.7604 162.446 22.5581 162.44 16.3167C162.44 12.4879 163.376 9.06208 165.691 6.0897C168.755 2.16012 172.739 0.0945706 177.708 0.0218006C181.544 -0.0341764 184.899 1.2309 187.903 3.59313C188.998 4.45517 189.009 4.82462 188.095 5.8434C187.416 6.59909 186.721 7.34359 186.032 8.08808C185.566 8.59187 185.074 8.65904 184.532 8.20003C184.33 8.0265 184.111 7.88096 183.897 7.72983C178.666 3.95698 172.061 5.80982 169.456 11.7826C166.939 17.565 170.239 24.3326 176.296 25.676C178.66 26.2022 180.964 25.7936 183.252 24.7748Z" fill="#3DD595"/>
<path d="M119.839 5.83306V12.8582C120.287 12.8862 120.703 12.9309 121.125 12.9309C123.965 12.9365 126.81 12.9309 129.651 12.9309C131.139 12.9309 131.238 13.0261 131.248 14.4927C131.254 15.3883 131.27 16.284 131.243 17.174C131.221 18.0025 130.969 18.2879 130.176 18.4111C129.831 18.4671 129.481 18.4447 129.131 18.4447C126.553 18.4447 123.97 18.4447 121.393 18.4447C120.917 18.4447 120.446 18.4447 119.882 18.4447V25.8952C120.353 25.9176 120.818 25.9624 121.283 25.9624C124.693 25.968 128.102 25.9624 131.517 25.9624C131.823 25.9624 132.13 25.9624 132.436 25.9736C133 25.996 133.344 26.2703 133.35 26.8804C133.355 28.0447 133.35 29.2034 133.35 30.3678C133.35 30.9611 133.043 31.2746 132.474 31.3194C132.168 31.3418 131.861 31.3362 131.555 31.3362C126.351 31.3362 121.147 31.3362 115.948 31.3362C115.685 31.3362 115.423 31.3474 115.16 31.3306C114.323 31.2634 114.109 31.0507 114.027 30.183C114 29.9199 114.016 29.6457 114.016 29.377C114.016 20.3871 114.016 11.3972 114.016 2.40727C114.016 2.18337 114.005 1.95946 114.016 1.73555C114.087 0.711171 114.29 0.515252 115.297 0.459275C115.428 0.453677 115.559 0.459275 115.691 0.459275C121.07 0.459275 126.449 0.459275 131.823 0.459275C133.235 0.459275 133.328 0.565631 133.344 1.96506C133.35 2.77112 133.355 3.57719 133.344 4.37766C133.328 5.67633 133.202 5.81627 131.889 5.82187C128.392 5.83306 124.895 5.82187 121.393 5.82187C120.917 5.82187 120.441 5.82187 119.839 5.82187V5.83306Z" fill="#3DD595"/>
<path d="M5.66933 18.5178V25.8731C6.11259 25.9067 6.56679 25.9627 7.02647 25.9627C10.4357 25.9683 13.8505 25.9627 17.2597 25.9627C17.61 25.9627 17.9602 25.9627 18.3104 25.9795C18.8193 26.0075 19.1422 26.2762 19.1477 26.8135C19.1641 28.0226 19.1586 29.2261 19.1532 30.4352C19.1532 30.9726 18.8412 31.2525 18.3487 31.3141C18.0477 31.3533 17.7358 31.3365 17.4294 31.3365C12.1814 31.3365 6.93344 31.3365 1.68548 31.3365C1.42281 31.3365 1.16013 31.3365 0.897462 31.3253C0.32834 31.3029 0 31.023 0 30.4129C0 30.1442 0 29.8755 0 29.6068C0 20.4825 0 11.3583 0 2.23406C0 2.09971 0 1.96537 0 1.83102C0.0218893 0.577138 0.114919 0.465184 1.36808 0.465184C6.83494 0.453988 12.3018 0.453988 17.7687 0.465184C19.0218 0.465184 19.1422 0.605126 19.1586 1.83102C19.1696 2.72665 19.175 3.62228 19.1586 4.51232C19.1422 5.62626 18.9616 5.81658 17.8398 5.82218C15.3937 5.83897 12.9421 5.82218 10.4959 5.82778C8.92537 5.82778 7.36028 5.82778 5.60366 5.82778C5.60366 7.08726 5.60366 8.24038 5.60366 9.38791C5.60366 10.5354 5.60366 11.6102 5.60366 12.8305C6.05787 12.8697 6.43546 12.9257 6.80758 12.9257C9.64772 12.9313 12.4933 12.9257 15.3335 12.9257C17.0408 12.9257 17.0627 12.948 17.0627 14.7561C17.0627 15.607 17.0299 16.4578 17.0737 17.3031C17.1065 17.9804 16.8055 18.305 16.1871 18.3666C15.7986 18.4058 15.4046 18.4394 15.0106 18.4394C12.3894 18.445 9.76263 18.4394 7.14139 18.445C6.67624 18.445 6.20562 18.4842 5.6748 18.5066L5.66933 18.5178Z" fill="#3DD595"/>
<path d="M202.082 10.776C202.432 10.317 202.679 10.0203 202.897 9.70122C204.769 6.95275 206.652 4.20988 208.485 1.43902C208.95 0.739306 209.464 0.397847 210.312 0.448226C211.445 0.515399 212.589 0.431433 213.722 0.481813C214.116 0.498606 214.636 0.63295 214.855 0.907237C215.183 1.32706 214.893 1.81406 214.603 2.23949C212.43 5.42458 210.274 8.62086 208.107 11.8171C207.259 13.0654 206.427 14.3193 205.552 15.5508C205.147 16.1218 204.993 16.7095 204.993 17.4148C205.015 21.3948 205.004 25.3748 205.004 29.3603C205.004 29.7186 205.021 30.0824 204.971 30.4295C204.889 30.9669 204.605 31.3307 204.019 31.3307C202.706 31.3307 201.398 31.3419 200.085 31.3307C199.565 31.3307 199.286 31.0172 199.258 30.4911C199.242 30.1328 199.242 29.7746 199.242 29.4163C199.242 25.4811 199.226 21.5403 199.253 17.6052C199.253 16.8999 199.083 16.3177 198.7 15.7411C195.718 11.2798 192.752 6.80721 189.786 2.33465C189.616 2.08275 189.419 1.82526 189.337 1.53418C189.178 0.97441 189.446 0.515399 190.021 0.498606C191.548 0.453824 193.086 0.425836 194.607 0.520996C194.984 0.543387 195.411 1.008 195.669 1.37185C196.916 3.14632 198.115 4.95997 199.335 6.75683C200.205 8.0387 201.081 9.30938 202.082 10.7816V10.776Z" fill="#3DD595"/>
</svg>
