<svg width="81" height="12" viewBox="0 0 81 12" fill="none" xmlns="http://www.w3.org/2000/svg">
<path d="M0.374258 11H7.79426V9.04H2.47426V6.94H6.53426V5.05H2.47426V3.16H7.65426V1.2H0.374258V11ZM16.9014 7.85C16.7054 8.116 16.4674 8.34 16.1874 8.55C15.6974 8.9 15.0114 9.25 14.1014 9.25C12.3514 9.25 10.9514 7.85 10.9514 6.1C10.9514 4.35 12.3514 2.95 14.1014 2.95C14.9834 2.95 15.6554 3.3 16.1174 3.65C16.3834 3.86 16.6214 4.084 16.8314 4.35L18.2314 2.95C17.9374 2.586 17.6014 2.264 17.1954 1.97C16.5094 1.48 15.4594 0.99 14.1014 0.99C11.0774 0.99 8.78137 3.3 8.78137 6.1C8.78137 8.9 11.0774 11.21 14.1014 11.21C15.5014 11.21 16.5374 10.72 17.2514 10.23C17.6574 9.936 18.0074 9.614 18.3014 9.25L16.9014 7.85ZM21.1096 6.1C21.1096 4.35 22.5096 2.95 24.2596 2.95C26.0096 2.95 27.4096 4.35 27.4096 6.1C27.4096 7.85 26.0096 9.25 24.2596 9.25C22.5096 9.25 21.1096 7.85 21.1096 6.1ZM18.9396 6.1C18.9396 8.9 21.2356 11.21 24.2596 11.21C27.2836 11.21 29.5796 8.9 29.5796 6.1C29.5796 3.3 27.2836 0.99 24.2596 0.99C21.2356 0.99 18.9396 3.3 18.9396 6.1ZM31.4641 11H33.5641V4.91L38.3241 11H40.2141V1.2H38.1141V7.29L33.3541 1.2H31.4641V11ZM42.7297 11H50.1497V9.04H44.8297V6.94H48.8897V5.05H44.8297V3.16H50.0097V1.2H42.7297V11ZM52.0403 11H54.1403V7.78H56.1003L57.8503 11H60.1603L58.1303 7.36C58.4523 7.22 58.7323 7.024 58.9703 6.772C59.4043 6.338 59.8103 5.61 59.8103 4.49C59.8103 2.53 58.4803 1.2 56.3803 1.2H52.0403V11ZM54.1403 5.82V3.16H56.3103C57.0943 3.16 57.6403 3.706 57.6403 4.49C57.6403 5.274 57.0943 5.82 56.3103 5.82H54.1403ZM66.9514 7.29H68.7714V8.48C68.6174 8.634 68.4214 8.76 68.2114 8.872C67.8334 9.082 67.3154 9.25 66.6014 9.25C64.8514 9.25 63.4514 7.85 63.4514 6.1C63.4514 4.35 64.8514 2.95 66.6014 2.95C67.4834 2.95 68.1554 3.3 68.6174 3.65C68.8834 3.86 69.1214 4.084 69.3314 4.35L70.7314 2.95C70.4374 2.586 70.1014 2.264 69.6954 1.97C69.0094 1.48 67.9594 0.99 66.6014 0.99C63.5774 0.99 61.2814 3.3 61.2814 6.1C61.2814 8.9 63.5774 11.21 66.6014 11.21C68.0014 11.21 69.0654 10.762 69.7794 10.272C70.1994 9.992 70.5634 9.67 70.8714 9.32V5.61H66.9514V7.29ZM75.1468 11H77.2468V7.5L80.9568 1.2H78.5068L76.2248 5.4H76.1688L73.8868 1.2H71.4368L75.1468 7.5V11Z" fill="#00B96B"/>
</svg>
