<svg width="30" height="30" viewBox="0 0 30 30" fill="none" xmlns="http://www.w3.org/2000/svg">
<circle cx="15" cy="15" r="15" fill="white" fill-opacity="0.8"/>
<path d="M19.2379 10.7624C18.6093 10.1281 17.8462 9.64313 17.005 9.34326C16.1639 9.04339 15.2661 8.93631 14.3779 9.02992C11.6254 9.30742 9.36044 11.5424 9.05294 14.2949C8.64044 17.9324 11.4529 20.9999 15.0004 20.9999C16.133 20.9999 17.2424 20.6786 18.1996 20.0732C19.1568 19.4678 19.9226 18.6032 20.4079 17.5799C20.6479 17.0774 20.2879 16.4999 19.7329 16.4999C19.4554 16.4999 19.1929 16.6499 19.0729 16.8974C18.6375 17.8342 17.8927 18.5924 16.9639 19.0445C16.0351 19.4967 14.9788 19.6151 13.9729 19.3799C12.3079 19.0124 10.9654 17.6549 10.6129 15.9899C10.4648 15.3316 10.4665 14.6484 10.618 13.9909C10.7694 13.3333 11.0668 12.7182 11.4881 12.1911C11.9093 11.664 12.4437 11.2383 13.0517 10.9456C13.6597 10.6528 14.3257 10.5005 15.0004 10.4999C16.2454 10.4999 17.3554 11.0174 18.1654 11.8349L17.0329 12.9674C16.5604 13.4399 16.8904 14.2499 17.5579 14.2499H20.2504C20.6629 14.2499 21.0004 13.9124 21.0004 13.4999V10.8074C21.0004 10.1399 20.1904 9.80242 19.7179 10.2749L19.2379 10.7624Z" fill="#444444"/>
</svg>
