<svg width="34" height="34" viewBox="0 0 34 34" fill="none" xmlns="http://www.w3.org/2000/svg">
<path fill-rule="evenodd" clip-rule="evenodd" d="M0.768555 3.44988L3.45159 0.766846L12.1714 2.77912L2.78083 12.1697L0.768555 3.44988ZM2.7812 12.1703L12.1718 2.77967L26.9285 17.5363L26.9286 17.5362L28.2701 21.5608L21.5625 28.2684L17.538 26.9269L17.5379 26.927L2.7812 12.1703ZM10.1628 10.158C11.2742 9.04666 13.076 9.04666 14.1874 10.158C15.2987 11.2694 15.2987 13.0712 14.1874 14.1826C13.076 15.2939 11.2742 15.2939 10.1628 14.1826C9.05147 13.0712 9.05147 11.2694 10.1628 10.158ZM33.6355 10.8281L24.2449 14.8526L16.1958 6.80351L30.9525 8.14503L33.6355 10.8281ZM14.8482 24.2433L10.8237 33.634L8.14064 30.9509L6.79912 16.1942L14.8482 24.2433ZM28.6268 23.8203L23.5356 28.9115L25.5721 30.9479L30.1541 30.4388L30.6633 25.8568L28.6268 23.8203Z" fill="#3DD595"/>
</svg>
