<svg width="30" height="30" viewBox="0 0 30 30" fill="none" xmlns="http://www.w3.org/2000/svg">
<circle cx="15" cy="15" r="15" fill="white" fill-opacity="0.8"/>
<path d="M18 20.0625C17.5875 20.0625 17.2342 19.9207 16.9402 19.6372C16.6462 19.3537 16.4995 19.0134 16.5 18.6161V11.3839C16.5 10.9862 16.647 10.6455 16.941 10.362C17.235 10.0785 17.588 9.93702 18 9.9375C18.4125 9.9375 18.7657 10.0793 19.0597 10.3628C19.3537 10.6463 19.5005 10.9866 19.5 11.3839V18.6161C19.5 19.0138 19.353 19.3545 19.059 19.638C18.765 19.9215 18.412 20.063 18 20.0625ZM12 20.0625C11.5875 20.0625 11.2343 19.9207 10.9403 19.6372C10.6463 19.3537 10.4995 19.0134 10.5 18.6161V11.3839C10.5 10.9862 10.647 10.6455 10.941 10.362C11.235 10.0785 11.588 9.93702 12 9.9375C12.4125 9.9375 12.7658 10.0793 13.0598 10.3628C13.3538 10.6463 13.5005 10.9866 13.5 11.3839V18.6161C13.5 19.0138 13.353 19.3545 13.059 19.638C12.765 19.9215 12.412 20.063 12 20.0625Z" fill="#444444"/>
</svg>
